<?xml version="1.0"?>
<svg xmlns="http://www.w3.org/2000/svg" id="Capa_1" enable-background="new 0 0 450.824 450.824" height="512px" viewBox="0 0 450.824 450.824" width="512px" class=""><g><path d="m235.374 384.509c5.502 5.502 5.502 14.422 0 19.924s-14.422 5.502-19.924 0-5.502-14.422 0-19.924 14.423-5.502 19.924 0" data-original="#000000" class="active-path" data-old_color="#000000" fill="#3B97FF"/><path d="m112.707 42.265c0-7.773 6.315-14.088 14.088-14.088h197.235c7.773 0 14.088 6.315 14.088 14.088v236.088l28.176 28.176v-264.264c.001-23.306-18.958-42.265-42.264-42.265h-197.235c-18.114 0-33.473 11.51-39.475 27.554l25.387 25.387z" data-original="#000000" class="active-path" data-old_color="#000000" fill="#3B97FF"/><path d="m450.824 430.903-430.902-430.903-19.922 19.922 84.529 84.529v304.109c0 23.306 18.959 42.265 42.265 42.265h197.235c23.306 0 42.265-18.959 42.265-42.265v-22.343l64.608 64.608zm-112.706-22.343c0 7.773-6.315 14.088-14.088 14.088h-197.235c-7.773 0-14.088-6.315-14.088-14.088v-42.265h225.412v42.265zm-225.411-70.442v-205.49l205.49 205.49z" data-original="#000000" class="active-path" data-old_color="#000000" fill="#3B97FF"/></g> </svg>
